<svg width="500" height="150" viewBox="0 0 500 150" fill="none" xmlns="http://www.w3.org/2000/svg">
<mask id="mask0" mask-type="alpha" maskUnits="userSpaceOnUse" x="0" y="0" width="500" height="150">
<rect width="500" height="150" fill="#FBDEA4"/>
</mask>
<g mask="url(#mask0)">
<rect width="500" height="150" fill="#FBDEA4"/>
<g opacity="0.5">
<path d="M-8 150V0L301 150H-8Z" fill="url(#paint0_linear)" fill-opacity="0.25"/>
<path d="M-8 150V0L301 150H-8Z" fill="url(#paint1_linear)" fill-opacity="0.25"/>
<g opacity="0.25">
<path d="M501 0V150L199 0H501Z" fill="url(#paint2_linear)" fill-opacity="0.25"/>
<path d="M501 0V150L199 0H501Z" fill="url(#paint3_linear)"/>
</g>
<g opacity="0.25">
<path d="M-4 0V150L499 25V0H-4Z" fill="url(#paint4_linear)"/>
<path d="M-4 0V150L499 25V0H-4Z" fill="url(#paint5_linear)"/>
</g>
</g>
<g opacity="0.5">
<path d="M21.6147 79.6001L62.0459 76.1077L61.4207 68.5274L20.9895 72.0199L21.6147 79.6001Z" stroke="#140B41" stroke-miterlimit="10" stroke-linecap="round" stroke-linejoin="round"/>
<path d="M18.0823 77.6406L18.0627 77.3732L17.7634 73.7669L14.2787 75.6479L18.0823 77.6406Z" fill="#140B41"/>
<path d="M21.5542 79.0368L21.0145 72.5267C20.9916 72.2962 20.7422 72.1632 20.5429 72.2747L14.2871 75.7955L21.0865 79.3482C21.3137 79.4615 21.5782 79.2883 21.5542 79.0368Z" stroke="#140B41" stroke-miterlimit="10" stroke-linecap="round" stroke-linejoin="round"/>
<path d="M77.5297 68.2897L50.4702 89.8979L39.596 35.9797L66.0336 11.25L77.5297 68.2897Z" stroke="#FF7433" stroke-miterlimit="10" stroke-linecap="round" stroke-linejoin="round"/>
<path d="M86.2069 73.6096L50.4702 89.8977L39.596 35.9795L74.7075 16.5766L86.2069 73.6096Z" stroke="#140B41" stroke-linejoin="round"/>
<path d="M81.9395 27.2752L39.605 35.9763L50.4781 89.897L92.8126 81.196L81.9395 27.2752Z" fill="white" stroke="#FF7433" stroke-miterlimit="10" stroke-linecap="round" stroke-linejoin="round"/>
<path d="M60.2255 66.2871C66.5237 69.2975 74.0792 66.6124 77.1012 60.2899C80.1233 53.9673 77.4675 46.4014 71.1694 43.3911C64.8713 40.3807 57.3158 43.0658 54.2937 49.3883C51.2716 55.7109 53.9274 63.2768 60.2255 66.2871Z" fill="#FFDD33"/>
<path d="M71.0471 59.9971L62.4186 61.7689L61.845 66.5485L56.5342 67.6435L60.1112 44.8607L66.6338 43.5192L78.7841 63.0677L73.4401 64.1633L71.0471 59.9971ZM69.0163 56.45L64.1244 47.9433L62.9141 57.7035L69.0163 56.45Z" fill="#140B41"/>
<path d="M56.2251 78.2718L84.7759 72.4054" stroke="#140B41" stroke-linejoin="round"/>
<path d="M56.9865 82.0135L76.9088 77.919" stroke="#140B41" stroke-linejoin="round"/>
<path d="M120.903 109.777L155.361 97.3569L191 123.769L154.3 137.567L120.903 109.777Z" stroke="#FFDD33" stroke-miterlimit="10" stroke-linecap="round" stroke-linejoin="round"/>
<path d="M27.9673 113.306L74.8495 103.501L115.869 142.72L68.9938 153.508L27.9673 113.306Z" fill="#FFDD33"/>
<path d="M43.4638 131.489C47.4754 131.489 50.7274 128.224 50.7274 124.197C50.7274 120.17 47.4754 116.905 43.4638 116.905C39.4522 116.905 36.2002 120.17 36.2002 124.197C36.2002 128.224 39.4522 131.489 43.4638 131.489Z" stroke="#140B41"/>
<path d="M23.1181 133.433C27.1297 133.433 30.3817 130.169 30.3817 126.142C30.3817 122.115 27.1297 118.85 23.1181 118.85C19.1065 118.85 15.8545 122.115 15.8545 126.142C15.8545 130.169 19.1065 133.433 23.1181 133.433Z" stroke="#140B41"/>
<path d="M47.113 117.982L29.2394 108.32C27.5013 107.383 25.3482 107.782 24.0597 109.284L22.9097 110.621" stroke="#140B41"/>
<path d="M17.3585 121.993L2.3297 113.954C0.591628 113.017 -1.56152 113.416 -2.84994 114.918L-4 116.255" stroke="#140B41"/>
<path d="M36.0278 124.362C34.3243 123.928 32.5257 124.058 30.9087 124.735" stroke="#140B41"/>
<path d="M169.637 118.106C166.661 119.097 164.664 126.391 166.98 126.726C169.295 127.062 166.661 119.097 163.358 119.09C161.02 119.082 158.72 125.057 161.035 125.393C162.497 125.601 161.703 120.751 158.727 121.742C155.751 122.733 155.417 125.057 155.417 125.057" stroke="#FF7433" stroke-miterlimit="10" stroke-linecap="round" stroke-linejoin="round"/>
<path d="M95.3223 140.326L157.293 121L188.834 144.841L122.226 165.933L95.3223 140.326Z" stroke="#140B41" stroke-miterlimit="10"/>
<path d="M73 174.249C83.1008 172.438 92.9566 149.737 85.6241 147.561C78.2842 145.393 83.1082 172.431 93.8101 174.003C101.38 175.113 111.607 156.852 104.267 154.684C99.6286 153.313 99.7919 167.215 110.041 167.603C115.303 167.796 117.492 163.431 119.927 158.558" stroke="#FF7900" stroke-miterlimit="10" stroke-linecap="round" stroke-linejoin="round"/>
<path d="M120.821 130.8L150.378 158.607L155.612 153.087L126.054 125.28L120.821 130.8Z" fill="#FF7433" stroke="#140B41" stroke-miterlimit="10" stroke-linecap="round" stroke-linejoin="round"/>
<path d="M119.926 126.861L120.113 126.668L122.601 124.04L118.876 122.697L119.926 126.861Z" fill="#FF7900"/>
<path d="M121.2 130.378L125.693 125.636C125.849 125.465 125.782 125.191 125.566 125.116L118.771 122.801L120.656 130.237C120.723 130.482 121.029 130.564 121.2 130.378Z" stroke="#140B41" stroke-miterlimit="10" stroke-linecap="round" stroke-linejoin="round"/>
</g>
<path d="M143.457 99.7821L130.323 79.141H119V80.4872C121.717 80.9359 122.85 81.609 122.85 84.0769V105.615C122.85 108.083 121.717 108.756 119 109.205V110.551H129.417V109.205C125.794 108.756 125.341 108.083 125.341 105.615V84.9744L141.645 110.551H145.948V84.0769C145.948 81.609 147.08 80.9359 149.798 80.4872V79.141H139.381V80.4872C143.004 80.9359 143.457 81.609 143.457 84.0769V99.7821Z" fill="#394149"/>
<path d="M150.791 99.3333C150.655 105.795 155.501 111 162.34 111C169.088 111 174.206 105.795 174.342 99.3333C174.433 92.8718 169.541 87.6667 162.748 87.6667C155.954 87.6667 150.882 92.8718 150.791 99.3333ZM158.49 99.3333C158.49 92.6026 159.713 89.9103 162.567 89.9103C165.42 89.9103 166.643 92.6026 166.643 99.3333C166.643 106.064 165.42 108.756 162.567 108.756C159.713 108.756 158.49 106.064 158.49 99.3333Z" fill="#394149"/>
<path d="M185.236 90.5833H190.67V88.1154H185.236V81.3846H183.424L177.989 87.6667L176.177 88.3397V90.5833H177.989V105.615C177.989 109.429 181.159 111 184.33 111C186.594 111 189.312 110.103 191.576 108.308V107.186C190.127 107.455 188.859 107.635 187.953 107.635C185.688 107.635 185.236 106.737 185.236 103.821V90.5833Z" fill="#394149"/>
<path d="M205.158 89.9103C206.97 89.9103 208.781 91.2564 207.649 95.2949H200.674C201.127 91.7949 202.577 89.9103 205.158 89.9103ZM204.932 111C210.593 111 213.31 107.859 214.216 106.962V103.821C211.952 105.167 210.14 105.84 207.423 105.84C204.026 105.84 200.538 103.821 200.538 97.7628H213.944C215.303 90.1346 210.593 87.6667 205.385 87.6667C199.723 87.6667 193.383 91.9295 193.383 99.5577C193.383 105.615 197.459 111 204.932 111Z" fill="#394149"/>
<path d="M227.803 91.4808C230.521 91.4808 232.785 93.5 233.012 99.3333C233.238 105.391 231.427 108.756 228.256 108.756C226.898 108.756 224.633 108.308 224.633 103.147V92.6923C225.539 91.9295 226.671 91.4808 227.803 91.4808ZM224.633 76H224.271L215.122 78.0192V79.3654C216.481 79.8141 217.387 80.4872 217.387 82.7308V110.776H219.198L222.821 108.756C224.859 110.551 227.26 111 228.936 111C234.823 111 240.485 106.513 240.485 99.3333C240.485 92.6026 236.861 87.6667 230.974 87.6667C228.256 87.6667 226.218 88.7885 224.724 90.8077H224.633V76Z" fill="#394149"/>
<path d="M242.345 99.3333C242.209 105.795 247.055 111 253.894 111C260.643 111 265.76 105.795 265.896 99.3333C265.987 92.8718 261.095 87.6667 254.302 87.6667C247.508 87.6667 242.436 92.8718 242.345 99.3333ZM250.045 99.3333C250.045 92.6026 251.267 89.9103 254.121 89.9103C256.974 89.9103 258.197 92.6026 258.197 99.3333C258.197 106.064 256.974 108.756 254.121 108.756C251.267 108.756 250.045 106.064 250.045 99.3333Z" fill="#394149"/>
<path d="M267.777 99.3333C267.641 105.795 272.487 111 279.326 111C286.074 111 291.192 105.795 291.328 99.3333C291.418 92.8718 286.527 87.6667 279.734 87.6667C272.94 87.6667 267.867 92.8718 267.777 99.3333ZM275.476 99.3333C275.476 92.6026 276.699 89.9103 279.552 89.9103C282.406 89.9103 283.628 92.6026 283.628 99.3333C283.628 106.064 282.406 108.756 279.552 108.756C276.699 108.756 275.476 106.064 275.476 99.3333Z" fill="#394149"/>
<path d="M302.243 100.679C302.695 100.679 303.103 100.949 304.054 102.25L306.545 105.84C308.402 108.487 308.13 108.981 307.224 109.205V110.551H319V109.205C317.868 108.532 317.46 108.667 314.516 104.942L308.13 96.4167L312.206 91.7051C313.475 90.1346 314.969 89.9103 317.415 89.4615V88.1154H306.772V89.4615C310.033 89.9103 309.897 91.1667 308.357 93.0513L306.092 95.7436C305.005 97.0449 303.601 97.3141 302.243 97.3141V76H301.88L292.732 78.0192V79.3654C294.09 79.8141 294.996 80.4872 294.996 82.7308V105.615C294.996 108.083 294.09 108.756 292.279 109.205V110.551H304.96V109.205C303.148 108.756 302.243 108.083 302.243 105.615V100.679Z" fill="#394149"/>
<path d="M136.686 42L131.205 55.8802L125.698 42H120V61.3548H123.663V45.5668L129.903 61.3548H132.481L138.721 45.5945V61.3548H142.411V42H136.686Z" fill="#394149"/>
<path d="M155.572 47.2535L152.398 57.0968L148.979 47.2535H144.991L150.417 61.023L147.812 66H152.235L159.615 47.2535H155.572Z" fill="#394149"/>
<path d="M179.47 51.235C181.967 50.7097 183.242 48.7742 183.242 46.7558C183.242 43.9631 180.881 42 177.3 42H168.265V61.3548H177.49C181.044 61.3548 183.703 59.1152 183.703 56.0737C183.703 53.8065 182.184 51.7327 179.47 51.235ZM176.622 45.0691C178.439 45.0691 179.552 46.0369 179.552 47.3917C179.552 48.7465 178.439 49.9355 176.459 49.9355H171.901V45.0691H176.622ZM176.784 58.2581H171.901V52.7281H176.54C179.036 52.7281 179.959 54.2488 179.959 55.5207C179.959 57.0415 178.711 58.2581 176.784 58.2581Z" fill="#394149"/>
<path d="M192.306 46.977C191.41 46.977 189.538 47.0323 187.205 47.7512V51.1244C189.267 49.9355 190.651 49.7972 191.437 49.7972C193.635 49.7972 194.639 50.9309 194.639 52.6728V54.083C193.581 52.8664 192.251 52.3963 190.759 52.3963C187.829 52.3963 185.74 54.3871 185.74 57.0138C185.74 59.6406 187.802 61.6313 190.705 61.6313C192.278 61.6313 193.635 60.9677 194.639 59.6959V61.3548H198.247V52.5346C198.247 48.9677 195.996 46.977 192.306 46.977ZM191.817 59.2535C190.379 59.2535 189.294 58.2857 189.294 57.0138C189.294 55.7419 190.379 54.7742 191.844 54.7742C192.74 54.7742 193.689 55.106 194.639 56.3502V57.6774C193.689 58.894 192.74 59.2535 191.817 59.2535Z" fill="#394149"/>
<path d="M209.674 46.977C207.883 46.977 206.364 47.7512 205.251 49.1613V42H201.643V61.3548H205.251V59.447C206.364 60.8571 207.883 61.6313 209.674 61.6313C213.445 61.6313 215.914 58.4793 215.914 54.3041C215.914 50.1014 213.418 46.977 209.674 46.977ZM208.534 58.5346C207.15 58.5346 206.038 57.7051 205.251 56.5438V52.0645C206.092 50.8756 207.232 50.0737 208.588 50.0737C210.813 50.0737 212.333 51.871 212.333 54.3041C212.333 56.7373 210.759 58.5346 208.534 58.5346Z" fill="#394149"/>
<path d="M226.725 46.977C224.934 46.977 223.415 47.7512 222.302 49.1613V42H218.694V61.3548H222.302V59.447C223.415 60.8571 224.934 61.6313 226.725 61.6313C230.496 61.6313 232.965 58.4793 232.965 54.3041C232.965 50.1014 230.469 46.977 226.725 46.977ZM225.585 58.5346C224.201 58.5346 223.089 57.7051 222.302 56.5438V52.0645C223.143 50.8756 224.283 50.0737 225.639 50.0737C227.864 50.0737 229.384 51.871 229.384 54.3041C229.384 56.7373 227.81 58.5346 225.585 58.5346Z" fill="#394149"/>
<path d="M248.605 53.9447C248.605 49.6313 245.946 46.977 242.094 46.977C238.132 46.977 235.148 49.7419 235.148 54.0277C235.148 58.8111 237.997 61.6313 242.908 61.6313C243.993 61.6313 245.702 61.4654 247.791 60.8295V57.7327C245.648 58.5622 244.373 58.8111 243.206 58.8111C240.466 58.8111 239.028 57.7604 238.702 55.2442H248.605V53.9447ZM242.121 49.576C243.993 49.576 245.051 50.8479 245.322 52.894H238.702C239.001 50.7926 240.221 49.576 242.121 49.576Z" fill="#394149"/>
<path d="M251.391 61.3548H255V42H251.391V61.3548Z" fill="#394149"/>
</g>
<defs>
<linearGradient id="paint0_linear" x1="146.5" y1="0" x2="146.5" y2="150" gradientUnits="userSpaceOnUse">
<stop offset="0.463542" stop-color="#FF790F" stop-opacity="0"/>
<stop offset="1" stop-color="#FF790F"/>
</linearGradient>
<linearGradient id="paint1_linear" x1="146.5" y1="0" x2="146.5" y2="150" gradientUnits="userSpaceOnUse">
<stop offset="0.463542" stop-color="#FF790F" stop-opacity="0"/>
<stop offset="1" stop-color="#FF790F"/>
</linearGradient>
<linearGradient id="paint2_linear" x1="350" y1="150" x2="350" y2="0" gradientUnits="userSpaceOnUse">
<stop offset="0.463542" stop-color="#9AA7B3" stop-opacity="0"/>
<stop offset="1" stop-color="#9AA7B3"/>
</linearGradient>
<linearGradient id="paint3_linear" x1="265.44" y1="137" x2="349.547" y2="67.4518" gradientUnits="userSpaceOnUse">
<stop offset="0.463542" stop-color="#FF790F" stop-opacity="0"/>
<stop offset="1" stop-color="#FF790F"/>
</linearGradient>
<linearGradient id="paint4_linear" x1="247.5" y1="150" x2="247.5" y2="0" gradientUnits="userSpaceOnUse">
<stop offset="0.463542" stop-color="#9AA7B3" stop-opacity="0"/>
<stop offset="1" stop-color="#9AA7B3"/>
</linearGradient>
<linearGradient id="paint5_linear" x1="228.309" y1="129" x2="275.242" y2="74.5356" gradientUnits="userSpaceOnUse">
<stop offset="0.157508" stop-color="#FF790F" stop-opacity="0"/>
<stop offset="1" stop-color="#FF790F"/>
</linearGradient>
</defs>
</svg>
